<svg xmlns="http://www.w3.org/2000/svg" width="167" height="40" viewBox="0 0 167 40" fill="none"><path d="M29.0091 20.1758C28.6199 20.1685 28.2838 20.457 28.2444 20.8443C28.053 22.729 27.2169 24.5577 25.7444 25.9735C22.4459 29.1466 17.1995 29.044 14.0265 25.7445C10.8534 22.446 10.9559 17.1997 14.2554 14.0266C15.9569 12.3892 18.1766 11.6246 20.3625 11.7207C20.7856 11.739 21.14 11.4048 21.1483 10.9817L21.282 4.11265C21.2902 3.69781 20.9614 3.35624 20.5466 3.3425C16.2096 3.20056 11.8213 4.74177 8.44679 7.98719C1.81217 14.3682 1.60704 24.9185 7.98708 31.5531C14.368 38.1878 24.9184 38.3929 31.553 32.0129C34.6648 29.0202 36.3626 25.109 36.63 21.1163C36.6583 20.6859 36.3213 20.3187 35.89 20.3105L29.0091 20.1758Z" fill="#4867F2"></path><path d="M32.6419 7.48843L32.6402 10.7806C32.6403 10.9624 32.4929 11.1098 32.3109 11.1099L31.6275 11.1103C31.1005 11.1106 30.5947 11.3202 30.2217 11.6932L24.9168 16.9981C24.4151 17.4999 24.1329 18.1804 24.1325 18.8895L24.1305 22.9098C24.1303 23.2735 23.8354 23.5683 23.4718 23.5685L16.8874 23.5719C16.524 23.5719 16.2294 23.2774 16.2294 22.9139L16.2328 16.3296C16.2332 15.9661 16.5281 15.6713 16.8915 15.6709L20.9372 15.6688C21.6464 15.6684 22.3269 15.3863 22.8286 14.8845L28.1081 9.60505C28.4811 9.23205 28.6906 8.72648 28.691 8.1992L28.6914 7.49048C28.6917 7.30864 28.8391 7.16123 29.0208 7.16113L32.3129 7.15942C32.495 7.15933 32.6422 7.30659 32.6419 7.48843Z" fill="url(#paint0_linear_162_555)"></path><path d="M61.7372 16.7656H57.3821C57.3026 16.2022 57.1402 15.7017 56.8949 15.2642C56.6496 14.8201 56.3348 14.4422 55.9503 14.1307C55.5658 13.8191 55.1217 13.5805 54.6179 13.4148C54.1207 13.2491 53.5805 13.1662 52.9972 13.1662C51.9432 13.1662 51.0251 13.428 50.2429 13.9517C49.4607 14.4687 48.8542 15.2244 48.4233 16.2188C47.9924 17.2064 47.777 18.4062 47.777 19.8182C47.777 21.2699 47.9924 22.4896 48.4233 23.4773C48.8608 24.465 49.4706 25.2107 50.2528 25.7145C51.035 26.2183 51.9399 26.4702 52.9673 26.4702C53.544 26.4702 54.0777 26.3939 54.5682 26.2415C55.0653 26.089 55.5062 25.867 55.8906 25.5753C56.2751 25.277 56.5933 24.9157 56.8452 24.4915C57.1037 24.0672 57.2827 23.5833 57.3821 23.0398L61.7372 23.0597C61.6245 23.9943 61.3428 24.8958 60.892 25.7642C60.4479 26.6259 59.848 27.3982 59.0923 28.081C58.3433 28.7571 57.4484 29.294 56.4077 29.6918C55.3736 30.0829 54.2036 30.2784 52.8977 30.2784C51.0814 30.2784 49.4574 29.8674 48.0256 29.0455C46.6004 28.2235 45.4735 27.0336 44.6449 25.4759C43.8229 23.9181 43.4119 22.0322 43.4119 19.8182C43.4119 17.5975 43.8295 15.7083 44.6648 14.1506C45.5 12.5928 46.6335 11.4062 48.0653 10.5909C49.4972 9.76894 51.108 9.35795 52.8977 9.35795C54.0777 9.35795 55.1714 9.52367 56.179 9.85511C57.1932 10.1866 58.0914 10.6705 58.8736 11.3068C59.6558 11.9366 60.2921 12.7088 60.7827 13.6236C61.2798 14.5384 61.598 15.5857 61.7372 16.7656ZM83.5376 19.8182C83.5376 22.0388 83.1167 23.928 82.2749 25.4858C81.4396 27.0436 80.2995 28.2334 78.8544 29.0554C77.416 29.8707 75.7985 30.2784 74.0021 30.2784C72.1925 30.2784 70.5684 29.8674 69.13 29.0455C67.6915 28.2235 66.5547 27.0336 65.7195 25.4759C64.8842 23.9181 64.4666 22.0322 64.4666 19.8182C64.4666 17.5975 64.8842 15.7083 65.7195 14.1506C66.5547 12.5928 67.6915 11.4062 69.13 10.5909C70.5684 9.76894 72.1925 9.35795 74.0021 9.35795C75.7985 9.35795 77.416 9.76894 78.8544 10.5909C80.2995 11.4062 81.4396 12.5928 82.2749 14.1506C83.1167 15.7083 83.5376 17.5975 83.5376 19.8182ZM79.1726 19.8182C79.1726 18.3797 78.9572 17.1667 78.5263 16.179C78.102 15.1913 77.5021 14.4422 76.7266 13.9318C75.951 13.4214 75.0429 13.1662 74.0021 13.1662C72.9614 13.1662 72.0533 13.4214 71.2777 13.9318C70.5021 14.4422 69.8989 15.1913 69.468 16.179C69.0438 17.1667 68.8317 18.3797 68.8317 19.8182C68.8317 21.2566 69.0438 22.4697 69.468 23.4574C69.8989 24.4451 70.5021 25.1941 71.2777 25.7045C72.0533 26.215 72.9614 26.4702 74.0021 26.4702C75.0429 26.4702 75.951 26.215 76.7266 25.7045C77.5021 25.1941 78.102 24.4451 78.5263 23.4574C78.9572 22.4697 79.1726 21.2566 79.1726 19.8182ZM86.7269 30V9.63636H91.0323V26.4503H99.7624V30H86.7269ZM109.832 30H102.614V9.63636H109.892C111.94 9.63636 113.704 10.044 115.182 10.8594C116.66 11.6681 117.797 12.8314 118.592 14.3494C119.394 15.8674 119.795 17.6837 119.795 19.7983C119.795 21.9195 119.394 23.7424 118.592 25.267C117.797 26.7917 116.653 27.9616 115.162 28.777C113.677 29.5923 111.901 30 109.832 30ZM106.919 26.3111H109.653C110.926 26.3111 111.997 26.0857 112.865 25.6349C113.74 25.1776 114.396 24.4716 114.834 23.517C115.278 22.5559 115.5 21.3163 115.5 19.7983C115.5 18.2936 115.278 17.0639 114.834 16.1094C114.396 15.1548 113.743 14.4522 112.875 14.0014C112.007 13.5507 110.936 13.3253 109.663 13.3253H106.919V26.3111Z" fill="#212121"></path><path d="M126.147 9.63636V30H123.681V9.63636H126.147ZM147.477 16H145.011C144.866 15.2907 144.61 14.6676 144.246 14.1307C143.888 13.5938 143.45 13.143 142.933 12.7784C142.423 12.4072 141.856 12.1288 141.233 11.9432C140.61 11.7576 139.96 11.6648 139.284 11.6648C138.051 11.6648 136.934 11.9763 135.933 12.5994C134.939 13.2225 134.147 14.1406 133.557 15.3537C132.973 16.5668 132.682 18.0549 132.682 19.8182C132.682 21.5814 132.973 23.0696 133.557 24.2827C134.147 25.4957 134.939 26.4138 135.933 27.0369C136.934 27.66 138.051 27.9716 139.284 27.9716C139.96 27.9716 140.61 27.8788 141.233 27.6932C141.856 27.5076 142.423 27.2325 142.933 26.8679C143.45 26.4967 143.888 26.0426 144.246 25.5057C144.61 24.9621 144.866 24.339 145.011 23.6364H147.477C147.292 24.6771 146.954 25.6084 146.463 26.4304C145.973 27.2524 145.363 27.9517 144.634 28.5284C143.904 29.0985 143.086 29.5327 142.178 29.831C141.276 30.1293 140.312 30.2784 139.284 30.2784C137.547 30.2784 136.003 29.8542 134.651 29.0057C133.298 28.1572 132.234 26.9508 131.459 25.3864C130.683 23.822 130.295 21.9659 130.295 19.8182C130.295 17.6705 130.683 15.8144 131.459 14.25C132.234 12.6856 133.298 11.4792 134.651 10.6307C136.003 9.7822 137.547 9.35795 139.284 9.35795C140.312 9.35795 141.276 9.5071 142.178 9.8054C143.086 10.1037 143.904 10.5412 144.634 11.1179C145.363 11.688 145.973 12.384 146.463 13.206C146.954 14.0213 147.292 14.9527 147.477 16ZM151.462 30V9.63636H158.343C159.94 9.63636 161.246 9.92472 162.26 10.5014C163.281 11.0715 164.037 11.8438 164.527 12.8182C165.018 13.7926 165.263 14.8797 165.263 16.0795C165.263 17.2794 165.018 18.3698 164.527 19.3509C164.043 20.3319 163.294 21.1141 162.28 21.6974C161.266 22.2741 159.967 22.5625 158.382 22.5625H153.451V20.375H158.303C159.397 20.375 160.275 20.1861 160.938 19.8082C161.601 19.4304 162.081 18.92 162.38 18.277C162.685 17.6274 162.837 16.8949 162.837 16.0795C162.837 15.2642 162.685 14.535 162.38 13.892C162.081 13.2491 161.597 12.7453 160.928 12.3807C160.258 12.0095 159.37 11.8239 158.263 11.8239H153.928V30H151.462Z" fill="#525252"></path><defs><linearGradient id="paint0_linear_162_555" x1="28.7055" y1="1.93315" x2="27.2621" y2="24.3296" gradientUnits="userSpaceOnUse"><stop stop-color="#F8F489"></stop><stop offset="1" stop-color="#728BFB"></stop></linearGradient></defs></svg>